# Blender 3.3.1
# www.blender.org
mtllib mueble-cuarto03.mtl
g Cubo.003_Malla
v 3.777368 0.016547 2.701808
v 3.777368 3.116547 2.701808
v 3.777368 0.016547 1.261807
v 3.777368 3.116547 1.261807
v 5.777368 0.016547 2.701808
v 5.777368 3.116547 2.701808
v 5.777368 0.016547 1.261807
v 5.777368 3.116547 1.261807
v 3.777368 2.835152 2.701808
v 3.777368 2.835152 1.261807
v 5.777368 2.835152 1.261807
v 5.777368 2.835152 2.701808
v 3.777368 2.722326 1.261807
v 5.777368 2.722326 1.261807
v 5.777368 2.722326 2.701808
v 3.777368 2.722326 2.701808
v 3.777368 1.869450 1.261807
v 5.777368 1.869450 1.261807
v 5.777368 1.869450 2.701808
v 3.777368 1.869450 2.701808
v 3.777368 1.735409 1.261807
v 5.777368 1.735409 1.261807
v 5.777368 1.735409 2.701808
v 3.777368 1.735410 2.701808
v 3.777368 0.977885 1.261807
v 5.777368 0.977885 1.261807
v 5.777368 0.977885 2.701808
v 3.777368 0.977885 2.701808
v 3.777368 0.836344 1.261807
v 5.777368 0.836344 1.261807
v 5.777368 0.836344 2.701808
v 3.777368 0.836344 2.701808
v 3.777368 2.835152 1.351691
v 5.777368 2.835152 1.351691
v 3.777368 2.722326 1.351691
v 5.777368 2.722326 1.351691
v 3.777368 1.869450 1.325953
v 5.777368 1.869450 1.325953
v 3.777368 1.735409 1.325953
v 5.777368 1.735409 1.325953
v 3.777368 1.869450 1.342292
v 5.777368 1.869450 1.342292
v 3.777368 1.735409 1.342292
v 5.777368 1.735409 1.342292
v 3.777368 0.977885 1.347667
v 5.777368 0.977885 1.347667
v 3.777368 0.836344 1.347667
v 5.777368 0.836344 1.347667
vn -1.0000 -0.0000 -0.0000
vn -0.0000 -0.0000 -1.0000
vn 1.0000 -0.0000 -0.0000
vn -0.0000 -0.0000 1.0000
vn -0.0000 -1.0000 -0.0000
vn -0.0000 1.0000 -0.0000
vt 0.375000 0.000000
vt 0.125000 0.750000
vt 0.375000 1.000000
vt 0.625000 0.000000
vt 0.625000 1.000000
vt 0.875000 0.750000
vt 0.125000 0.500000
vt 0.375000 0.250000
vt 0.625000 0.250000
vt 0.875000 0.500000
vt 0.375000 0.750000
vt 0.625000 0.750000
vt 0.375000 0.500000
vt 0.625000 0.500000
vt 0.602307 1.000000
vt 0.602307 0.000000
vt 0.602307 0.250000
vt 0.602307 0.500000
vt 0.602307 0.750000
vt 0.593208 0.250000
vt 0.593208 0.500000
vt 0.593208 0.750000
vt 0.593208 0.000000
vt 0.593208 1.000000
vt 0.524428 0.250000
vt 0.524428 0.500000
vt 0.524428 0.750000
vt 0.524428 1.000000
vt 0.524428 0.000000
vt 0.513618 0.250000
vt 0.513618 0.500000
vt 0.513618 0.750000
vt 0.513618 0.000000
vt 0.513618 1.000000
vt 0.452527 0.250000
vt 0.452527 0.500000
vt 0.452527 0.750000
vt 0.452527 1.000000
vt 0.452527 0.000000
vt 0.441113 0.250000
vt 0.441113 0.500000
vt 0.441113 0.750000
vt 0.441113 0.000000
vt 0.441113 1.000000
vt 0.602307 0.250000
vt 0.602307 0.500000
vt 0.593208 0.250000
vt 0.593208 0.500000
vt 0.524428 0.250000
vt 0.524428 0.500000
vt 0.513618 0.250000
vt 0.513618 0.500000
vt 0.524428 0.250000
vt 0.524428 0.500000
vt 0.513618 0.250000
vt 0.513618 0.500000
vt 0.452527 0.250000
vt 0.452527 0.500000
vt 0.441113 0.250000
vt 0.441113 0.500000
s 0
g off
g Cubo.003_mueble
usemtl mueble
f 2/4/1 10/17/1 9/16/1
f 4/9/2 11/18/2 10/17/2
f 8/14/3 12/19/3 11/18/3
f 6/12/4 9/15/4 12/19/4
f 7/13/5 1/2/5 3/7/5
f 4/10/6 6/12/6 8/14/6
f 12/19/4 16/24/4 15/22/4
f 11/18/3 15/22/3 14/21/3
f 13/20/6 36/48/6 14/21/6
f 9/16/1 13/20/1 16/23/1
f 16/23/1 17/25/1 20/29/1
f 13/20/2 18/26/2 17/25/2
f 14/21/3 19/27/3 18/26/3
f 15/22/4 20/28/4 19/27/4
f 19/27/4 24/34/4 23/32/4
f 18/26/3 23/32/3 22/31/3
f 17/25/3 39/51/3 21/30/3
f 20/29/1 21/30/1 24/33/1
f 24/33/1 25/35/1 28/39/1
f 21/30/2 26/36/2 25/35/2
f 22/31/3 27/37/3 26/36/3
f 23/32/4 28/38/4 27/37/4
f 27/37/4 32/44/4 31/42/4
f 26/36/3 31/42/3 30/41/3
f 25/35/3 47/59/3 29/40/3
f 28/39/1 29/40/1 32/43/1
f 32/43/1 3/8/1 1/1/1
f 29/40/2 7/13/2 3/8/2
f 30/41/3 5/11/3 7/13/3
f 31/42/4 1/3/4 5/11/4
f 33/45/2 36/48/2 35/47/2
f 14/21/1 34/46/1 11/18/1
f 10/17/3 35/47/3 13/20/3
f 11/18/5 33/45/5 10/17/5
f 37/49/3 43/55/3 39/51/3
f 18/26/5 37/49/5 17/25/5
f 21/30/6 40/52/6 22/31/6
f 22/31/1 38/50/1 18/26/1
f 41/53/2 44/56/2 43/55/2
f 40/52/1 42/54/1 38/50/1
f 38/50/5 41/53/5 37/49/5
f 39/51/6 44/56/6 40/52/6
f 45/57/2 48/60/2 47/59/2
f 26/36/5 45/57/5 25/35/5
f 29/40/6 48/60/6 30/41/6
f 30/41/1 46/58/1 26/36/1
f 2/4/1 4/9/1 10/17/1
f 4/9/2 8/14/2 11/18/2
f 8/14/3 6/12/3 12/19/3
f 6/12/4 2/5/4 9/15/4
f 7/13/5 5/11/5 1/2/5
f 4/10/6 2/6/6 6/12/6
f 12/19/4 9/15/4 16/24/4
f 11/18/3 12/19/3 15/22/3
f 13/20/6 35/47/6 36/48/6
f 9/16/1 10/17/1 13/20/1
f 16/23/1 13/20/1 17/25/1
f 13/20/2 14/21/2 18/26/2
f 14/21/3 15/22/3 19/27/3
f 15/22/4 16/24/4 20/28/4
f 19/27/4 20/28/4 24/34/4
f 18/26/3 19/27/3 23/32/3
f 17/25/3 37/49/3 39/51/3
f 20/29/1 17/25/1 21/30/1
f 24/33/1 21/30/1 25/35/1
f 21/30/2 22/31/2 26/36/2
f 22/31/3 23/32/3 27/37/3
f 23/32/4 24/34/4 28/38/4
f 27/37/4 28/38/4 32/44/4
f 26/36/3 27/37/3 31/42/3
f 25/35/3 45/57/3 47/59/3
f 28/39/1 25/35/1 29/40/1
f 32/43/1 29/40/1 3/8/1
f 29/40/2 30/41/2 7/13/2
f 30/41/3 31/42/3 5/11/3
f 31/42/4 32/44/4 1/3/4
f 33/45/2 34/46/2 36/48/2
f 14/21/1 36/48/1 34/46/1
f 10/17/3 33/45/3 35/47/3
f 11/18/5 34/46/5 33/45/5
f 37/49/3 41/53/3 43/55/3
f 18/26/5 38/50/5 37/49/5
f 21/30/6 39/51/6 40/52/6
f 22/31/1 40/52/1 38/50/1
f 41/53/2 42/54/2 44/56/2
f 40/52/1 44/56/1 42/54/1
f 38/50/5 42/54/5 41/53/5
f 39/51/6 43/55/6 44/56/6
f 45/57/2 46/58/2 48/60/2
f 26/36/5 46/58/5 45/57/5
f 29/40/6 47/59/6 48/60/6
f 30/41/1 48/60/1 46/58/1
g Cubo.004_Malla
v 1.691598 0.040201 2.667746
v 1.691598 3.120201 2.667746
v 1.691598 0.040201 1.227746
v 1.691598 3.120201 1.227746
v 3.691598 0.040201 2.667746
v 3.691598 3.120201 2.667746
v 3.691598 0.040201 1.227746
v 3.691598 3.120201 1.227746
v 1.691598 2.840621 2.667746
v 1.691598 2.840621 1.227746
v 3.691598 2.840621 1.227746
v 3.691598 2.840621 2.667746
v 1.691598 2.728523 1.227746
v 3.691598 2.728523 1.227746
v 3.691598 2.728523 2.667746
v 1.691598 2.728523 2.667746
v 1.691598 1.881150 1.227746
v 3.691598 1.881150 1.227746
v 3.691598 1.881150 2.667746
v 1.691598 1.881150 2.667746
v 1.691598 1.747974 1.227746
v 3.691598 1.747974 1.227746
v 3.691598 1.747974 2.667746
v 1.691598 1.747974 2.667746
v 1.691598 0.995337 1.227746
v 3.691598 0.995337 1.227746
v 3.691598 0.995337 2.667746
v 1.691598 0.995337 2.667746
v 1.691598 0.854710 1.227746
v 3.691598 0.854710 1.227746
v 3.691598 0.854710 2.667746
v 1.691598 0.854710 2.667746
v 1.691598 2.840621 1.317630
v 3.691598 2.840621 1.317630
v 1.691598 2.728523 1.317630
v 3.691598 2.728523 1.317630
v 1.691598 1.881150 1.291891
v 3.691598 1.881150 1.291891
v 1.691598 1.747974 1.291891
v 3.691598 1.747974 1.291891
v 1.691598 1.881150 1.308230
v 3.691598 1.881150 1.308230
v 1.691598 1.747974 1.308230
v 3.691598 1.747974 1.308230
v 1.691598 0.995337 1.313605
v 3.691598 0.995337 1.313605
v 1.691598 0.854710 1.313605
v 3.691598 0.854710 1.313605
vn -1.0000 -0.0000 -0.0000
vn -0.0000 -0.0000 -1.0000
vn 1.0000 -0.0000 -0.0000
vn -0.0000 -0.0000 1.0000
vn -0.0000 -1.0000 -0.0000
vn -0.0000 1.0000 -0.0000
vt 0.375000 0.000000
vt 0.125000 0.750000
vt 0.375000 1.000000
vt 0.625000 0.000000
vt 0.625000 1.000000
vt 0.875000 0.750000
vt 0.125000 0.500000
vt 0.375000 0.250000
vt 0.625000 0.250000
vt 0.875000 0.500000
vt 0.375000 0.750000
vt 0.625000 0.750000
vt 0.375000 0.500000
vt 0.625000 0.500000
vt 0.602307 1.000000
vt 0.602307 0.000000
vt 0.602307 0.250000
vt 0.602307 0.500000
vt 0.602307 0.750000
vt 0.593208 0.250000
vt 0.593208 0.500000
vt 0.593208 0.750000
vt 0.593208 0.000000
vt 0.593208 1.000000
vt 0.524428 0.250000
vt 0.524428 0.500000
vt 0.524428 0.750000
vt 0.524428 1.000000
vt 0.524428 0.000000
vt 0.513618 0.250000
vt 0.513618 0.500000
vt 0.513618 0.750000
vt 0.513618 0.000000
vt 0.513618 1.000000
vt 0.452527 0.250000
vt 0.452527 0.500000
vt 0.452527 0.750000
vt 0.452527 1.000000
vt 0.452527 0.000000
vt 0.441113 0.250000
vt 0.441113 0.500000
vt 0.441113 0.750000
vt 0.441113 0.000000
vt 0.441113 1.000000
vt 0.602307 0.250000
vt 0.602307 0.500000
vt 0.593208 0.250000
vt 0.593208 0.500000
vt 0.524428 0.250000
vt 0.524428 0.500000
vt 0.513618 0.250000
vt 0.513618 0.500000
vt 0.524428 0.250000
vt 0.524428 0.500000
vt 0.513618 0.250000
vt 0.513618 0.500000
vt 0.452527 0.250000
vt 0.452527 0.500000
vt 0.441113 0.250000
vt 0.441113 0.500000
s 0
g off
g Cubo.004_mueble
usemtl mueble
f 50/64/7 58/77/7 57/76/7
f 52/69/8 59/78/8 58/77/8
f 56/74/9 60/79/9 59/78/9
f 54/72/10 57/75/10 60/79/10
f 55/73/11 49/62/11 51/67/11
f 52/70/12 54/72/12 56/74/12
f 60/79/10 64/84/10 63/82/10
f 59/78/9 63/82/9 62/81/9
f 61/80/12 84/108/12 62/81/12
f 57/76/7 61/80/7 64/83/7
f 64/83/7 65/85/7 68/89/7
f 61/80/8 66/86/8 65/85/8
f 62/81/9 67/87/9 66/86/9
f 63/82/10 68/88/10 67/87/10
f 67/87/10 72/94/10 71/92/10
f 66/86/9 71/92/9 70/91/9
f 65/85/9 87/111/9 69/90/9
f 68/89/7 69/90/7 72/93/7
f 72/93/7 73/95/7 76/99/7
f 69/90/8 74/96/8 73/95/8
f 70/91/9 75/97/9 74/96/9
f 71/92/10 76/98/10 75/97/10
f 75/97/10 80/104/10 79/102/10
f 74/96/9 79/102/9 78/101/9
f 73/95/9 95/119/9 77/100/9
f 76/99/7 77/100/7 80/103/7
f 80/103/7 51/68/7 49/61/7
f 77/100/8 55/73/8 51/68/8
f 78/101/9 53/71/9 55/73/9
f 79/102/10 49/63/10 53/71/10
f 81/105/8 84/108/8 83/107/8
f 62/81/7 82/106/7 59/78/7
f 58/77/9 83/107/9 61/80/9
f 59/78/11 81/105/11 58/77/11
f 85/109/9 91/115/9 87/111/9
f 66/86/11 85/109/11 65/85/11
f 69/90/12 88/112/12 70/91/12
f 70/91/7 86/110/7 66/86/7
f 89/113/8 92/116/8 91/115/8
f 88/112/7 90/114/7 86/110/7
f 86/110/11 89/113/11 85/109/11
f 87/111/12 92/116/12 88/112/12
f 93/117/8 96/120/8 95/119/8
f 74/96/11 93/117/11 73/95/11
f 77/100/12 96/120/12 78/101/12
f 78/101/7 94/118/7 74/96/7
f 50/64/7 52/69/7 58/77/7
f 52/69/8 56/74/8 59/78/8
f 56/74/9 54/72/9 60/79/9
f 54/72/10 50/65/10 57/75/10
f 55/73/11 53/71/11 49/62/11
f 52/70/12 50/66/12 54/72/12
f 60/79/10 57/75/10 64/84/10
f 59/78/9 60/79/9 63/82/9
f 61/80/12 83/107/12 84/108/12
f 57/76/7 58/77/7 61/80/7
f 64/83/7 61/80/7 65/85/7
f 61/80/8 62/81/8 66/86/8
f 62/81/9 63/82/9 67/87/9
f 63/82/10 64/84/10 68/88/10
f 67/87/10 68/88/10 72/94/10
f 66/86/9 67/87/9 71/92/9
f 65/85/9 85/109/9 87/111/9
f 68/89/7 65/85/7 69/90/7
f 72/93/7 69/90/7 73/95/7
f 69/90/8 70/91/8 74/96/8
f 70/91/9 71/92/9 75/97/9
f 71/92/10 72/94/10 76/98/10
f 75/97/10 76/98/10 80/104/10
f 74/96/9 75/97/9 79/102/9
f 73/95/9 93/117/9 95/119/9
f 76/99/7 73/95/7 77/100/7
f 80/103/7 77/100/7 51/68/7
f 77/100/8 78/101/8 55/73/8
f 78/101/9 79/102/9 53/71/9
f 79/102/10 80/104/10 49/63/10
f 81/105/8 82/106/8 84/108/8
f 62/81/7 84/108/7 82/106/7
f 58/77/9 81/105/9 83/107/9
f 59/78/11 82/106/11 81/105/11
f 85/109/9 89/113/9 91/115/9
f 66/86/11 86/110/11 85/109/11
f 69/90/12 87/111/12 88/112/12
f 70/91/7 88/112/7 86/110/7
f 89/113/8 90/114/8 92/116/8
f 88/112/7 92/116/7 90/114/7
f 86/110/11 90/114/11 89/113/11
f 87/111/12 91/115/12 92/116/12
f 93/117/8 94/118/8 96/120/8
f 74/96/11 94/118/11 93/117/11
f 77/100/12 95/119/12 96/120/12
f 78/101/7 96/120/7 94/118/7
