# 3ds Max Wavefront OBJ Exporter v0.99 - (c)2007 guruware
# File Created: 14.12.2022 23:00:55

mtllib Cochera.mtl

#
# object Plane
#

v  -0.2634 -17.6879 25.0242
v  0.1798 -17.6879 -25.0217
v  0.1798 -0.1701 -25.0217
v  -0.2634 -0.1701 25.0242
# 4 vertices

vn 1.0000 0.0000 -0.0000
# 1 vertex normals

vt -0.0000 0.0000 0.5000
vt 1.0000 0.0000 0.5000
vt 1.0000 1.0000 0.5000
vt -0.0000 1.0000 0.5000
# 4 texture coords

o Plane
g Plane
usemtl Material__32
s off
f 1/1/1 2/2/1 3/3/1 
f 3/3/1 4/4/1 1/1/1 
# 2 faces

